<?xml version="1.0" encoding="UTF-8" standalone="no"?>
<!-- Created with Inkscape (http://www.inkscape.org/) -->

<svg
   xmlns:dc="http://purl.org/dc/elements/1.1/"
   xmlns:cc="http://creativecommons.org/ns#"
   xmlns:rdf="http://www.w3.org/1999/02/22-rdf-syntax-ns#"
   xmlns:svg="http://www.w3.org/2000/svg"
   xmlns="http://www.w3.org/2000/svg"
   xmlns:sodipodi="http://sodipodi.sourceforge.net/DTD/sodipodi-0.dtd"
   xmlns:inkscape="http://www.inkscape.org/namespaces/inkscape"
   id="svg2"
   version="1.1"
   inkscape:version="0.47 r22583"
   width="141.73199"
   height="153.99362"
   xml:space="preserve"
   sodipodi:docname="glasgow.pdf"><metadata
     id="metadata8"><rdf:RDF><cc:Work
         rdf:about=""><dc:format>image/svg+xml</dc:format><dc:type
           rdf:resource="http://purl.org/dc/dcmitype/StillImage" /><dc:title></dc:title></cc:Work></rdf:RDF></metadata><defs
     id="defs6"><inkscape:perspective
       sodipodi:type="inkscape:persp3d"
       inkscape:vp_x="0 : 0.5 : 1"
       inkscape:vp_y="0 : 1000 : 0"
       inkscape:vp_z="1 : 0.5 : 1"
       inkscape:persp3d-origin="0.5 : 0.33333333 : 1"
       id="perspective10" /><clipPath
       clipPathUnits="userSpaceOnUse"
       id="clipPath212"><path
         d="m 0,0 595.276,0 0,841.89 L 0,841.89 0,0 z"
         id="path214" /></clipPath><clipPath
       clipPathUnits="userSpaceOnUse"
       id="clipPath276"><path
         d="m 0,0 595.276,0 0,841.89 L 0,841.89 0,0 z"
         id="path278" /></clipPath><clipPath
       clipPathUnits="userSpaceOnUse"
       id="clipPath292"><path
         d="m 0,0 595.276,0 0,841.89 L 0,841.89 0,0 z"
         id="path294" /></clipPath><clipPath
       clipPathUnits="userSpaceOnUse"
       id="clipPath308"><path
         d="m 0,0 595.276,0 0,841.89 L 0,841.89 0,0 z"
         id="path310" /></clipPath><clipPath
       clipPathUnits="userSpaceOnUse"
       id="clipPath324"><path
         d="m 0,0 595.276,0 0,841.89 L 0,841.89 0,0 z"
         id="path326" /></clipPath><clipPath
       clipPathUnits="userSpaceOnUse"
       id="clipPath360"><path
         d="m 0,0 595.276,0 0,841.89 L 0,841.89 0,0 z"
         id="path362" /></clipPath><clipPath
       clipPathUnits="userSpaceOnUse"
       id="clipPath400"><path
         d="m 0,0 595.276,0 0,841.89 L 0,841.89 0,0 z"
         id="path402" /></clipPath></defs><sodipodi:namedview
     pagecolor="#ffffff"
     bordercolor="#666666"
     borderopacity="1"
     objecttolerance="10"
     gridtolerance="10"
     guidetolerance="10"
     inkscape:pageopacity="0"
     inkscape:pageshadow="2"
     inkscape:window-width="1280"
     inkscape:window-height="750"
     id="namedview4"
     showgrid="false"
     inkscape:zoom="2.5371819"
     inkscape:cx="98.202544"
     inkscape:cy="82.15382"
     inkscape:window-x="-8"
     inkscape:window-y="-8"
     inkscape:window-maximized="1"
     inkscape:current-layer="g12" /><g
     id="g12"
     inkscape:groupmode="layer"
     inkscape:label="glasgow"
     transform="matrix(1.25,0,0,-1.25,-141.732,1034.6458)"><g
       id="g3228"><g
         id="g208"><g
           clip-path="url(#clipPath212)"
           id="g210"><g
             transform="translate(127.1246,741.0876)"
             id="g216"><path
               id="path218"
               style="fill:#000000;fill-opacity:1;fill-rule:nonzero;stroke:none"
               d="m 0,0 -1.296,2.186 1.067,0 0.545,-0.961 C 0.36,1.152 0.514,0.83 0.551,0.762 l 0.037,0 c 0.111,0.216 0.124,0.234 0.248,0.471 l 0.515,0.953 1.082,0 -1.268,-2.167 1.355,-2.378 -1.077,0 -0.607,1.152 C 0.693,-0.94 0.681,-0.91 0.613,-0.767 l -0.036,0 C 0.483,-0.94 0.471,-0.972 0.341,-1.219 l -0.582,-1.14 -1.078,0 L 0,0 z" /></g><g
             transform="translate(131.5842,741.0876)"
             id="g220"><path
               id="path222"
               style="fill:#000000;fill-opacity:1;fill-rule:nonzero;stroke:none"
               d="m 0,0 -1.294,2.186 1.065,0 0.545,-0.961 C 0.36,1.152 0.514,0.83 0.552,0.762 l 0.037,0 c 0.11,0.216 0.123,0.234 0.247,0.471 l 0.515,0.953 1.084,0 -1.271,-2.167 1.356,-2.378 -1.077,0 -0.607,1.152 C 0.694,-0.94 0.681,-0.91 0.613,-0.767 l -0.037,0 C 0.484,-0.94 0.471,-0.972 0.341,-1.219 l -0.582,-1.14 -1.079,0 L 0,0 z" /></g><g
             transform="translate(137.0635,741.7433)"
             id="g224"><path
               id="path226"
               style="fill:#000000;fill-opacity:1;fill-rule:nonzero;stroke:none"
               d="m 0,0 c 0,1.041 0.557,1.63 1.617,1.63 0.272,0 0.681,-0.057 0.996,-0.305 0.409,-0.32 0.46,-0.878 0.471,-1.244 l -0.997,0 C 2.082,0.305 2.069,0.8 1.573,0.8 1.448,0.8 1.295,0.75 1.195,0.658 1.035,0.508 1.028,0.286 1.028,0.161 l 0,-1.727 c 0,-0.247 0,-0.724 0.551,-0.724 0.409,0 0.533,0.335 0.533,0.824 l 1.003,0 C 3.109,-1.794 3.103,-1.832 3.073,-2.024 3.036,-2.203 2.973,-2.532 2.595,-2.835 2.273,-3.094 1.803,-3.138 1.604,-3.138 1.078,-3.138 0.712,-3.014 0.428,-2.735 0.242,-2.556 0,-2.296 0,-1.368 L 0,0 z" /></g><g
             transform="translate(145.3258,743.2734)"
             id="g228"><path
               id="path230"
               style="fill:#000000;fill-opacity:1;fill-rule:nonzero;stroke:none"
               d="M 0,0 1.339,0 1.878,-1.894 C 1.933,-2.099 1.959,-2.167 2.007,-2.372 2.033,-2.464 2.125,-2.861 2.144,-2.94 l 0.031,0 c 0.068,0.377 0.136,0.662 0.247,1.064 L 2.955,0 l 1.344,0 0,-4.544 -0.873,0 0,2.445 c 0,0.322 0.024,0.861 0.044,1.294 l -0.026,0 -0.941,-3.739 -0.688,0 -0.965,3.739 -0.032,0 c 0.006,-0.21 0.045,-1.133 0.045,-1.326 l 0,-2.413 L 0,-4.544 0,0 z" /></g><g
             transform="translate(150.7594,743.2734)"
             id="g232"><path
               id="path234"
               style="fill:#000000;fill-opacity:1;fill-rule:nonzero;stroke:none"
               d="M 0,0 1.338,0 1.877,-1.894 C 1.932,-2.099 1.958,-2.167 2.006,-2.372 2.031,-2.464 2.124,-2.861 2.144,-2.94 l 0.03,0 c 0.069,0.377 0.136,0.662 0.248,1.064 L 2.955,0 l 1.343,0 0,-4.544 -0.873,0 0,2.445 c 0,0.322 0.024,0.861 0.044,1.294 l -0.026,0 -0.941,-3.739 -0.688,0 -0.965,3.739 -0.031,0 c 0.006,-0.21 0.044,-1.133 0.044,-1.326 l 0,-2.413 L 0,-4.544 0,0 z" /></g><g
             transform="translate(158.8455,742.921)"
             id="g236"><path
               id="path238"
               style="fill:#000000;fill-opacity:1;fill-rule:nonzero;stroke:none"
               d="M 0,0 C -0.304,0.328 -0.73,0.439 -1.195,0.439 -1.622,0.439 -2.049,0.322 -2.334,0.006 -2.65,-0.341 -2.73,-0.786 -2.73,-1.252 l 0,-1.219 c 0,-0.198 0.018,-0.594 0.117,-0.917 0.23,-0.767 0.96,-0.928 1.407,-0.928 0.29,0 0.836,0.044 1.213,0.453 0.285,0.309 0.39,0.717 0.39,1.355 l 0,1.102 C 0.397,-0.676 0.255,-0.274 0,0 m -0.638,-2.675 c 0,-0.316 0,-0.818 -0.538,-0.818 -0.446,0 -0.54,0.341 -0.54,0.818 l 0,1.578 c 0,0.18 0,0.699 0.552,0.699 0.526,0 0.526,-0.383 0.526,-0.699 l 0,-1.578 z" /></g><g
             transform="translate(160.2875,743.2734)"
             id="g240"><path
               id="path242"
               style="fill:#000000;fill-opacity:1;fill-rule:nonzero;stroke:none"
               d="m 0,0 0.954,0 1.17,-2.124 c 0.05,-0.093 0.111,-0.217 0.154,-0.309 0.019,-0.037 0.082,-0.205 0.1,-0.236 l 0.031,0 -0.025,0.459 C 2.365,-1.9 2.365,-1.863 2.365,-1.689 l 0,1.689 0.918,0 0,-4.544 -0.819,0 -1.207,2.203 c -0.099,0.181 -0.105,0.2 -0.341,0.749 l -0.031,0 c 0.006,-0.129 0.031,-0.705 0.031,-0.823 l 0,-2.129 L 0,-4.544 0,0 z" /></g><g
             transform="translate(165.3455,743.2734)"
             id="g244"><path
               id="path246"
               style="fill:#000000;fill-opacity:1;fill-rule:nonzero;stroke:none"
               d="m 0,0 0.471,-2.149 c 0.02,-0.074 0.093,-0.389 0.107,-0.458 l 0.078,-0.445 0.039,0 c 0.012,0.055 0.074,0.371 0.093,0.445 0.013,0.074 0.099,0.397 0.111,0.466 L 1.395,0 2.249,0 2.738,-2.137 c 0.007,-0.03 0.2,-0.879 0.211,-0.915 l 0.025,0 c 0.044,0.241 0.179,0.861 0.179,0.872 L 3.636,0 4.529,0 3.45,-4.544 l -0.897,0 -0.546,2.235 c -0.079,0.328 -0.148,0.687 -0.174,0.842 l -0.023,0 C 1.778,-1.604 1.655,-2.197 1.624,-2.322 l -0.527,-2.222 -0.898,0 L -0.903,0 0,0 z" /></g><g
             transform="translate(143.8786,742.921)"
             id="g248"><path
               id="path250"
               style="fill:#000000;fill-opacity:1;fill-rule:nonzero;stroke:none"
               d="M 0,0 C -0.302,0.328 -0.73,0.439 -1.195,0.439 -1.622,0.439 -2.05,0.322 -2.334,0.006 -2.65,-0.341 -2.73,-0.786 -2.73,-1.252 l 0,-1.219 c 0,-0.198 0.018,-0.594 0.118,-0.917 0.228,-0.767 0.959,-0.928 1.405,-0.928 0.291,0 0.837,0.044 1.214,0.453 0.285,0.309 0.39,0.717 0.39,1.355 l 0,1.102 C 0.397,-0.676 0.255,-0.274 0,0 m -0.637,-2.675 c 0,-0.316 0,-0.818 -0.54,-0.818 -0.445,0 -0.538,0.341 -0.538,0.818 l 0,1.578 c 0,0.18 0,0.699 0.552,0.699 0.526,0 0.526,-0.383 0.526,-0.699 l 0,-1.578 z" /></g></g></g><g
         transform="translate(170.725,743.2734)"
         id="g252"><path
           id="path254"
           style="fill:#000000;fill-opacity:1;fill-rule:nonzero;stroke:none"
           d="m 0,0 3.053,0 0,-0.829 -2.062,0 0,-0.966 1.419,0 0,-0.83 -1.407,0 0,-1.072 2.193,0 0,-0.847 L 0,-4.544 0,0 z" /></g><g
         transform="translate(177.1602,743.2734)"
         id="g256"><path
           id="path258"
           style="fill:#000000;fill-opacity:1;fill-rule:nonzero;stroke:none"
           d="m 0,0 -1.207,0 -1.283,-4.544 0.973,0 0.235,0.904 1.395,0 0.227,-0.904 0.973,0 L 0,0 z m -1.108,-2.867 0.495,2.055 0.024,0 0.503,-2.055 -1.022,0 z" /></g><g
         transform="translate(179.26,743.2734)"
         id="g260"><path
           id="path262"
           style="fill:#000000;fill-opacity:1;fill-rule:nonzero;stroke:none"
           d="m 0,0 1.018,0 0,-3.697 2,0 0,-0.847 L 0,-4.544 0,0 z" /></g><g
         transform="translate(185.7482,743.2734)"
         id="g264"><path
           id="path266"
           style="fill:#000000;fill-opacity:1;fill-rule:nonzero;stroke:none"
           d="m 0,0 0,-0.829 -1.134,0 0,-3.715 -1.041,0 0,3.715 -1.158,0 0,0.829 L 0,0 z" /></g><g
         transform="translate(186.6181,743.2734)"
         id="g268"><path
           id="path270"
           style="fill:#000000;fill-opacity:1;fill-rule:nonzero;stroke:none"
           d="m 0,0 1.011,0 0,-1.721 1.276,0 0,1.721 1.023,0 0,-4.544 -1.004,0 0,1.962 -1.289,0 0,-1.962 L 0,-4.544 0,0 z" /></g><g
         id="g272"><g
           clip-path="url(#clipPath276)"
           id="g274"><g
             transform="translate(193.1193,741.5958)"
             id="g280"><path
               id="path282"
               style="fill:#000000;fill-opacity:1;fill-rule:nonzero;stroke:none"
               d="m 0,0 c 0,0.402 0,0.978 0.471,1.411 0.347,0.316 0.754,0.36 1.195,0.36 0.86,0 1.475,-0.526 1.475,-1.406 l -0.993,0 C 2.13,0.768 1.927,0.953 1.585,0.953 1.065,0.953 1.028,0.507 1.028,0.241 l 0,-1.43 c 0,-0.595 0.111,-0.96 0.6,-0.96 0.52,0 0.52,0.427 0.52,0.595 l 0,0.309 -0.531,0 0,0.756 1.524,0 0,-2.428 -0.447,0 -0.13,0.316 -0.044,0 c -0.13,-0.154 -0.334,-0.39 -1.033,-0.39 -0.459,0 -0.88,0.13 -1.177,0.502 C 0.062,-2.174 0,-1.795 0,-1.233 L 0,0 z" /></g></g></g><g
         transform="translate(199.5767,743.2734)"
         id="g284"><path
           id="path286"
           style="fill:#000000;fill-opacity:1;fill-rule:nonzero;stroke:none"
           d="m 0,0 -1.21,0 -1.28,-4.544 0.972,0 0.235,0.904 1.392,0 0.23,-0.904 0.974,0 L 0,0 z m -1.109,-2.867 0.495,2.055 0.025,0 0.501,-2.055 -1.021,0 z" /></g><g
         id="g288"><g
           clip-path="url(#clipPath292)"
           id="g290"><g
             transform="translate(201.7433,743.2734)"
             id="g296"><path
               id="path298"
               style="fill:#000000;fill-opacity:1;fill-rule:nonzero;stroke:none"
               d="m 0,0 1.337,0 0.54,-1.894 c 0.054,-0.205 0.08,-0.273 0.128,-0.478 0.026,-0.092 0.119,-0.489 0.138,-0.568 l 0.03,0 c 0.069,0.377 0.137,0.662 0.248,1.064 L 2.953,0 l 1.344,0 0,-4.544 -0.873,0 0,2.445 c 0,0.322 0.025,0.861 0.045,1.294 l -0.025,0 -0.942,-3.739 -0.688,0 -0.967,3.739 -0.03,0 c 0.006,-0.21 0.044,-1.133 0.044,-1.326 l 0,-2.413 L 0,-4.544 0,0 z" /></g></g></g><g
         transform="translate(207.1451,743.2734)"
         id="g300"><path
           id="path302"
           style="fill:#000000;fill-opacity:1;fill-rule:nonzero;stroke:none"
           d="m 0,0 3.055,0 0,-0.829 -2.065,0 0,-0.966 1.419,0 0,-0.83 -1.405,0 0,-1.072 2.192,0 0,-0.847 L 0,-4.544 0,0 z" /></g><g
         id="g304"><g
           clip-path="url(#clipPath308)"
           id="g306"><g
             transform="translate(213.4912,742.0542)"
             id="g312"><path
               id="path314"
               style="fill:#000000;fill-opacity:1;fill-rule:nonzero;stroke:none"
               d="m 0,0 c -0.143,0.271 -0.434,0.507 -0.787,0.507 -0.521,0 -0.533,-0.39 -0.533,-0.439 0,-0.323 0.297,-0.453 0.576,-0.551 l 0.577,-0.21 c 0.272,-0.1 0.595,-0.285 0.774,-0.534 0.055,-0.074 0.254,-0.371 0.254,-0.799 0,-0.203 0,-0.81 -0.645,-1.2 -0.266,-0.161 -0.644,-0.229 -0.873,-0.229 -0.8,0 -1.27,0.192 -1.678,0.923 l 0.774,0.513 c 0.167,-0.384 0.47,-0.62 0.86,-0.62 0.217,0 0.606,0.1 0.606,0.515 0,0.34 -0.184,0.415 -0.866,0.681 -0.687,0.266 -1.282,0.57 -1.282,1.467 0,0.749 0.544,1.289 1.481,1.289 0.667,0 1.14,-0.274 1.511,-0.819 L 0,0 z" /></g></g></g><g
         transform="translate(213.4562,731.7939)"
         id="g316"><path
           id="path318"
           style="fill:#000000;fill-opacity:1;fill-rule:nonzero;stroke:none"
           d="m 0,0 0.896,3.464 -88.546,0 L -86.76,0 0,0 z" /></g><g
         id="g320"><g
           clip-path="url(#clipPath324)"
           id="g322"><g
             transform="translate(195.6541,728.3297)"
             id="g328"><path
               id="path330"
               style="fill:#000000;fill-opacity:1;fill-rule:nonzero;stroke:none"
               d="m 0,0 c -0.53,-5.823 -8.225,-10.849 -18.534,-12.406 l -0.123,-0.475 C -1.597,-11.732 11.362,-6.419 11.7,0 L 0,0 z" /></g><g
             transform="translate(144.4866,728.3297)"
             id="g332"><path
               id="path334"
               style="fill:#000000;fill-opacity:1;fill-rule:nonzero;stroke:none"
               d="m 0,0 -11.706,0 c 0.344,-6.423 13.305,-11.736 30.371,-12.881 l -0.117,0.474 C 8.221,-10.851 0.528,-5.823 0,0" /></g></g></g><g
         transform="translate(173.3584,728.3297)"
         id="g336"><path
           id="path338"
           style="fill:#0089cf;fill-opacity:1;fill-rule:nonzero;stroke:none"
           d="m 0,0 0,-18.845 0.318,0 L 5.021,0 0,0 z" /></g><g
         transform="translate(167.5758,728.3297)"
         id="g340"><path
           id="path342"
           style="fill:#fcb131;fill-opacity:1;fill-rule:nonzero;stroke:none"
           d="m 0,0 2.341,-23.808 0.319,0 L 4.995,0 0,0 z" /></g><g
         transform="translate(161.7666,728.3297)"
         id="g344"><path
           id="path346"
           style="fill:#e03a3e;fill-opacity:1;fill-rule:nonzero;stroke:none"
           d="m 0,0 4.7,-18.845 0.323,0 L 5.023,0 0,0 z" /></g><g
         transform="translate(217.5543,748.4735)"
         id="g348"><path
           id="path350"
           style="fill:#000000;fill-opacity:1;fill-rule:nonzero;stroke:none"
           d="m 0,0 -1.421,0 0,9.624 -1.659,0 0,1.286 1.622,0 L 0,10.91 0,0 z" /></g><g
         transform="translate(225.4072,752.0577)"
         id="g352"><path
           id="path354"
           style="fill:#000000;fill-opacity:1;fill-rule:nonzero;stroke:none"
           d="m 0,0 0,7.325 -0.509,0 -6.255,-8.656 5.372,0 0,-2.253 1.392,0 0,2.253 1.364,0 L 1.364,0 0,0 z m -1.392,0 -2.777,0 2.777,4.012 0,-4.012 z" /></g><g
         id="g356"><g
           clip-path="url(#clipPath360)"
           id="g358"><g
             transform="translate(157.5219,748.1243)"
             id="g364"><path
               id="path366"
               style="fill:#000000;fill-opacity:1;fill-rule:nonzero;stroke:none"
               d="m 0,0 c -3.179,0 -5.765,2.591 -5.765,5.775 0,3.185 2.586,5.774 5.765,5.774 1.843,0 3.589,-0.894 4.672,-2.391 L 4.712,9.103 3.548,8.258 3.508,8.313 C 2.695,9.438 1.385,10.11 0,10.11 c -2.385,0 -4.327,-1.945 -4.327,-4.335 0,-2.389 1.942,-4.334 4.327,-4.334 2.1,0 3.921,1.548 4.268,3.614 l -4.336,0 0,1.44 5.831,0 0,-0.72 C 5.763,2.591 3.178,0 0,0" /></g><g
             transform="translate(119.1516,748.1243)"
             id="g368"><path
               id="path370"
               style="fill:#000000;fill-opacity:1;fill-rule:nonzero;stroke:none"
               d="m 0,0 c -3.179,0 -5.766,2.591 -5.766,5.775 0,3.185 2.587,5.774 5.766,5.774 1.843,0 3.589,-0.894 4.672,-2.391 L 4.711,9.103 3.546,8.258 3.507,8.313 C 2.695,9.438 1.384,10.11 0,10.11 c -2.386,0 -4.328,-1.945 -4.328,-4.335 0,-2.389 1.942,-4.334 4.328,-4.334 2.099,0 3.92,1.548 4.266,3.614 l -4.334,0 0,1.44 5.831,0 0,-0.72 C 5.763,2.591 3.178,0 0,0" /></g><g
             transform="translate(147.2596,748.1296)"
             id="g372"><path
               id="path374"
               style="fill:#000000;fill-opacity:1;fill-rule:nonzero;stroke:none"
               d="m 0,0 c -1.736,0 -2.969,0.937 -3.384,2.571 l -0.013,0.053 1.292,0.639 0.02,-0.083 C -1.779,1.904 -1.058,1.229 0,1.229 c 1.255,0 2.1,0.784 2.1,1.951 0,0.94 -0.537,1.63 -1.642,2.109 l -1.319,0.559 c -1.464,0.619 -2.177,1.578 -2.177,2.932 0,1.588 1.309,2.741 3.114,2.741 1.333,0 2.324,-0.581 2.864,-1.678 L 2.967,9.789 1.795,9.034 1.759,9.096 c -0.467,0.814 -1.047,1.21 -1.774,1.21 -0.933,0 -1.584,-0.621 -1.584,-1.51 0,-0.733 0.45,-1.268 1.414,-1.683 L 1.36,6.43 C 2.805,5.813 3.538,4.792 3.538,3.392 3.538,1.363 2.117,0 0,0" /></g><g
             transform="translate(170.317,748.1147)"
             id="g376"><path
               id="path378"
               style="fill:#000000;fill-opacity:1;fill-rule:nonzero;stroke:none"
               d="m 0,0 c -1.53,0 -3.038,0.617 -4.138,1.689 -1.124,1.095 -1.718,2.502 -1.718,4.072 0,1.577 0.594,2.991 1.718,4.085 1.108,1.08 2.577,1.674 4.138,1.674 1.548,0 3.062,-0.61 4.154,-1.674 C 5.268,8.761 5.857,7.348 5.857,5.761 5.857,4.204 5.252,2.758 4.154,1.689 3.054,0.617 1.539,0 0,0 m 0,10.186 c -1.178,0 -2.275,-0.457 -3.089,-1.286 -0.839,-0.856 -1.284,-1.943 -1.284,-3.139 0,-1.179 0.445,-2.254 1.284,-3.11 C -2.237,1.8 -1.169,1.35 0,1.35 1.17,1.35 2.239,1.8 3.087,2.651 3.929,3.493 4.373,4.569 4.373,5.761 4.373,6.954 3.917,8.068 3.087,8.9 2.249,9.741 1.181,10.186 0,10.186" /></g><g
             transform="translate(209.24,748.047)"
             id="g380"><path
               id="path382"
               style="fill:#000000;fill-opacity:1;fill-rule:nonzero;stroke:none"
               d="m 0,0 c -2.308,0 -3.798,2.277 -3.798,5.801 0,3.523 1.49,5.8 3.798,5.8 2.316,0 3.812,-2.277 3.812,-5.8 C 3.812,2.277 2.316,0 0,0 m 0,10.316 c -1.447,0 -2.347,-1.73 -2.347,-4.515 0,-2.786 0.9,-4.515 2.347,-4.515 1.455,0 2.359,1.729 2.359,4.515 0,2.785 -0.904,4.515 -2.359,4.515" /></g></g></g><g
         transform="translate(181.1225,748.4702)"
         id="g384"><path
           id="path386"
           style="fill:#000000;fill-opacity:1;fill-rule:nonzero;stroke:none"
           d="M 0,0 2.605,7.757 5.224,0 5.669,0 9.73,10.913 l -1.541,0 -2.705,-7.835 -2.696,7.835 -0.394,0 -2.669,-7.834 -2.678,7.797 -0.013,0.037 -1.539,0 L -0.445,0 0,0 z" /></g><g
         transform="translate(132.0368,748.4702)"
         id="g388"><path
           id="path390"
           style="fill:#000000;fill-opacity:1;fill-rule:nonzero;stroke:none"
           d="m 0,0 0,1.298 -4.091,0 0,9.615 -1.424,0 L -5.515,0 0,0 z" /></g><g
         transform="translate(134.8592,748.4702)"
         id="g392"><path
           id="path394"
           style="fill:#000000;fill-opacity:1;fill-rule:nonzero;stroke:none"
           d="m 0,0 1.378,3.257 4.139,0 L 6.898,0 8.439,0 3.675,10.913 3.207,10.913 -1.543,0 0,0 z M 3.441,8.253 5.064,4.5 1.818,4.5 3.441,8.253 z" /></g><g
         id="g396"><g
           clip-path="url(#clipPath400)"
           id="g398"><g
             transform="translate(199.5051,749.7212)"
             id="g404"><path
               id="path406"
               style="fill:#000000;fill-opacity:1;fill-rule:nonzero;stroke:none"
               d="m 0,0 2.295,2.486 c 1.48,1.544 2.282,2.661 2.282,4.137 0,1.879 -1.603,3.298 -3.639,3.298 -2.221,0 -3.54,-1.517 -3.706,-3.415 l 1.305,0 C -1.308,7.409 -0.784,8.694 0.946,8.694 2.238,8.694 3.14,7.837 3.14,6.608 3.14,5.52 2.497,4.621 1.31,3.342 l -4.344,-4.675 7.614,0 L 4.58,0 0,0 z" /></g><g
             transform="translate(170.0781,827.7166)"
             id="g408"><path
               id="path410"
               style="fill:#e03a3e;fill-opacity:1;fill-rule:nonzero;stroke:none"
               d="m 0,0 c -17.434,0 -31.568,-14.133 -31.568,-31.568 0,-17.435 14.134,-31.569 31.568,-31.569 17.435,0 31.569,14.134 31.569,31.569 C 31.569,-14.133 17.435,0 0,0 m 0,-59.672 c -15.521,0 -28.104,12.582 -28.104,28.104 0,15.521 12.583,28.103 28.104,28.103 15.522,0 28.104,-12.582 28.104,-28.103 C 28.104,-47.09 15.522,-59.672 0,-59.672" /></g><g
             transform="translate(170.0781,822.7885)"
             id="g412"><path
               id="path414"
               style="fill:#fcb131;fill-opacity:1;fill-rule:nonzero;stroke:none"
               d="m 0,0 0,0 0,-3.465 c 12.802,0 23.176,-10.376 23.176,-23.175 0,-12.8 -10.374,-23.177 -23.176,-23.177 -12.798,0 -23.175,10.377 -23.175,23.177 0,5.091 1.645,9.798 4.429,13.621 l -2.804,2.036 c -3.2,-4.395 -5.09,-9.804 -5.09,-15.657 0,-14.714 11.929,-26.642 26.64,-26.642 14.716,0 26.641,11.928 26.641,26.642 C 26.641,-11.927 14.716,0 0,0" /></g><g
             transform="translate(170.0803,817.8611)"
             id="g416"><path
               id="path418"
               style="fill:#0089cf;fill-opacity:1;fill-rule:nonzero;stroke:none"
               d="m 0,0 0,-3.465 c 10.079,-0.001 18.247,-8.17 18.247,-18.248 0,-10.079 -8.169,-18.248 -18.249,-18.248 -1.967,0 -3.861,0.315 -5.637,0.892 l -1.071,-3.296 c 2.114,-0.687 4.366,-1.062 6.708,-1.062 11.994,0 21.713,9.722 21.713,21.714 C 21.711,-9.722 11.993,-0.001 0,0" /></g><g
             transform="translate(186.7724,797.8807)"
             id="g420"><path
               id="path422"
               style="fill:#39b54a;fill-opacity:1;fill-rule:nonzero;stroke:none"
               d="m 0,0 -16.694,0 0,-3.465 13.204,0 c -0.848,-6.538 -6.434,-11.588 -13.204,-11.588 -7.356,0 -13.32,5.963 -13.32,13.32 0,7.357 5.964,13.321 13.32,13.321 4.432,0 8.353,-2.165 10.776,-5.492 l 2.802,2.036 c -3.051,4.193 -7.994,6.92 -13.578,6.92 -9.269,0 -16.785,-7.514 -16.785,-16.785 0,-9.271 7.516,-16.785 16.785,-16.785 9.272,0 16.785,7.514 16.785,16.785 C 0.091,-1.148 0.058,-0.57 0,0" /></g></g></g></g></g></svg>